<?xml version="1.0" encoding="UTF-8"?>
<svg version="1.1" viewBox="0 0 2048 728" width="666" height="237" xmlns="http://www.w3.org/2000/svg">
<path transform="translate(823,19)" d="m0 0 13 1 4 2 7 11 2 3v12l3 3v5l-8 5-18 6h-21l-9 3-12 9-14 14-7 8-12 13-7 8-9 10-6 7-6 5-7 8-6 5-16 6-13 5-19 12-5 3 3 20v20l-4 3-8 1-2 4-7 8-12 8v34l2 32v28l-8 32v16l-3 3 1 6 4 9 24-2 39-2h9l16 2 21 6 22 9 7 6 4 8 5 19 2 21-1 18-5 24-8 28-16 48-3 16-4 8-2 2-11 1-2 6 1 7 9 8 11 9 12 11 6 9-1 6-5 5-7 6-12 3-10 1h-17l-10-3-10-9-10-11-11-6-8-9-1-3 5-21 2-14 5-6v-3l-9-6-1-5 6-16 1-5 3-56-13 5-25 12-12 4-11 1-37-5-9-2h-11l-11 7-10 7-12 7-11 3-15 1-10 4-9 5-17 6-19 5-13 4-11 7-9 8-15 10-14 8-19 9-3 1h-8l-13-5-4-1-7 8-10 9-10 8-8 7-6 2h-21l-16 3-23 6-6 4-9 7-11 4-7 1h-11l-19-1-10-2-11-8-9-7-4-1-1 23-8 5-24 11-10 5-4 8-8 5-9 2-16 1-17-2-9-4-2-3v-8l7-8 6-7 8-7 19-19 11-9 24-13 10-7 4-3 11-2 14-5 20-10 23-13 42-24 21-10 18-7 16-6 8-5 32-13 12-5 10-8 14-12 15-13 13-12 8-7 7-7 7-8 7-7 8-7 3-4v-13l5-13 5-8 5-5-2-4-14-9-7-6-7-10-3-1-5 3-16 2-6 4-3 3h-5l-13-7-4 1-20 14-10 6-13 5-16 3h-13l-8-5-3-6v-12l3-8 9-10 6-10 8-7 13-9 13-5 10-4 19-13 5-6 1-3 11-6 28-19 2-7 7-5h2l-2-4-5-5-2-3v-5l-9-3-1-3 1-4-12-2-6-5h-8l-3-4v-19l-2-5-6-8-5-11v-2l-17-1-17-4-5-3v-4l9-8 7-5 4-9 6-9 9-11 12-14 12-13 4-5 9-6 10-3h10l13 3 14 7 12 11 9 12 12 19 14 23 9 15 2 4 6 2 10-1 12-5 14-8 19-14 18-13 16-8 18-6 36-7 14-5 11-7 15-11 18-10 37-18 23-11 19-10 11-9 11-6 7-7 1-2h2v-2l11-7z" fill="#262121"/>
<path transform="translate(1456,242)" d="m0 0h171l16 3 9 4 11 6 12 11 8 9 8 13 4 9 4 17 1 23v157l-3 1h-31l-6-2v-138l-169 1-9 2-11 7-7 8-6 12-2 6-1 7v16l3 12 7 12 8 8 12 7 10 2 109 1 1 38-2 1h-99l-19-1-16-4-16-8-11-9-9-10-9-15-6-18-3-19v-18l2-13 5-14 5-10 9-12 8-8 14-10 12-5 10-3 7-1 19-1h154l-8-16-9-10-8-5-10-3-169-1-1-2v-36z" fill="#292424"/>
<path transform="translate(1805,243)" d="m0 0h136l14 2 12 4 13 7 11 9 9 10 8 13 5 14 2 10 1 11v91l-3 20-5 13-8 14-11 13-10 8-10 6-16 5-6 1-74 1h-48l-23-1-18-5-13-7-11-9-9-10-7-11-7-16-3-13-1-36 1-76 4-15 8-16 9-12 8-8 11-7 13-6 11-3zm2 39-10 4-10 8-7 10-5 11-2 9v89l2 11 7 13 9 10 10 6 11 3h127l12-4 9-6 7-8 8-16 1-4v-97l-4-13-7-11-8-8-11-6-4-1z" fill="#282323"/>
<path transform="translate(1367,241)" d="m0 0h20l1 1v252h-39v-139h-205v138l-1 1h-37v-252h37l1 1v74l101-1h104v-74z" fill="#282424"/>
<path transform="translate(1077,242)" d="m0 0 2 1v36l-1 1-63 1-11 3-8 6-8 9-7 14-3 15-1 90-3 16-6 16-7 11-12 13-10 8-14 7-16 4-8 1h-106l-2-5v-30l1-2 15-1 95-1 11-4 10-8 7-11 5-12 2-12 1-92 3-15 7-16 7-11 11-12 10-8 12-6 14-4 6-1z" fill="#272222"/>
<path transform="translate(1621,455)" d="m0 0h23l6 4 2 3 1 5v13l-2 7-6 5h-25l-7-4-2-3v-23l5-5z" fill="#FEFEFE"/>
</svg>
